@startuml
class lev.ariel.arielbookstore.HomeActivity {
~ Button loginPageBtn
~ ImageButton moreInfoIb
- Calendar calendar
~ Context context
# void onCreate(Bundle)
+ void loadFragment(Fragment)
+ void onClick(View)
- void createDialog()
+ boolean onCreateOptionsMenu(Menu)
+ boolean onOptionsItemSelected(MenuItem)
}


class lev.ariel.arielbookstore.NotificationUtils {
+ {static} void scheduleNotification(Context)
+ {static} void createNotificationChannel(Context)
}

class lev.ariel.arielbookstore.MyService {
- MediaPlayer mediaPlayer
~ Context context
+ void onCreate()
+ int onStartCommand(Intent,int,int)
+ void onDestroy()
+ IBinder onBind(Intent)
}


class lev.ariel.arielbookstore.Book {
- int bookImage
- String bookIsbn
- String bookName
- String bookAuthor
- String bookDescription
- String bookGenre
- int bookLength
- float bookPrice
- String sellerEmail
+ int getBookImage()
+ void setBookImage(int)
+ String getBookIsbn()
+ void setBookIsbn(String)
+ String getBookName()
+ void setBookName(String)
+ String getBookAuthor()
+ void setBookAuthor(String)
+ String getBookDescription()
+ void setBookDescription(String)
+ String getBookGenre()
+ void setBookGenre(String)
+ int getBookLength()
+ void setBookLength(int)
+ float getBookPrice()
+ void setBookPrice(float)
+ String getSellerEmail()
+ void setSellerEmail(String)
+ String toString()
}


class lev.ariel.arielbookstore.GoodbyeActivity {
~ Button back
~ Context context
- {static} String SENDERID_API_KEY
- {static} String FROM_EMAIL
~ FirebaseAuth auth
# void onCreate(Bundle)
- void sendEmail(String,String,String)
+ boolean onCreateOptionsMenu(Menu)
+ boolean onOptionsItemSelected(MenuItem)
}


class lev.ariel.arielbookstore.BookAdapter {
- List<Book> booksList
+ MyViewHolder onCreateViewHolder(ViewGroup,int)
+ void onBindViewHolder(MyViewHolder,int)
+ int getItemCount()
}


class lev.ariel.arielbookstore.BookAdapter$MyViewHolder {
+ ImageView bookImage
+ TextView bookName
+ TextView bookAuthor
+ TextView bookGenre
+ Button moreInfo
}

class lev.ariel.arielbookstore.RegisterFragment {
~ FirebaseAuth auth
+ View onCreateView(LayoutInflater,ViewGroup,Bundle)
}


class lev.ariel.arielbookstore.ScheduleBroadCastReciver {
+ void onReceive(Context,Intent)
- void showNotification(Context,int)
}

class lev.ariel.arielbookstore.BuyOrSellActivity {
~ Context context
# void onCreate(Bundle)
+ boolean onCreateOptionsMenu(Menu)
+ boolean onOptionsItemSelected(MenuItem)
}


class lev.ariel.arielbookstore.FavoritesUtils {
+ {static} void showFavoritesDialog(Context)
- {static} void showFavoritesDialogWithBooks(Context,List<DocumentSnapshot>)
- {static} List<List<T>> chunkList(List<T>,int)
}

class lev.ariel.arielbookstore.MainActivity {
~ ImageView logoIv
~ Context context
# void onCreate(Bundle)
}


class lev.ariel.arielbookstore.BookListActivity {
~ ImageButton playService
~ EditText nameSearch
~ Context context
~ Button ByName
~ RecyclerView bookListRv
~ BookAdapter adapter
~ List<Book> bookList
~ FirebaseFirestore db
# void onCreate(Bundle)
+ void getAll()
+ void onClick(View)
- void loadBooksByGenre(String)
+ void filterByName(String)
+ boolean onCreateOptionsMenu(Menu)
+ boolean onOptionsItemSelected(MenuItem)
}


class lev.ariel.arielbookstore.SellPageActivity {
~ EditText AuthorName
~ Button btn
~ FirebaseFirestore db
~ Context context
- ActivityResultLauncher<Uri> cameraLauncher
- Uri photoUri
# void onCreate(Bundle)
+ void openCamera()
+ boolean onCreateOptionsMenu(Menu)
+ boolean onOptionsItemSelected(MenuItem)
}


class lev.ariel.arielbookstore.LoginFragment {
~ FirebaseAuth auth
+ View onCreateView(LayoutInflater,ViewGroup,Bundle)
}


class lev.ariel.arielbookstore.BookPageActivity {
~ FirebaseFirestore db
~ TextView title
~ ImageView image
~ Button back
~ ImageButton favorite
~ Context context
# void onCreate(Bundle)
+ boolean onCreateOptionsMenu(Menu)
+ boolean onOptionsItemSelected(MenuItem)
}




lev.ariel.arielbookstore.OnClickListener <|.. lev.ariel.arielbookstore.HomeActivity
androidx.appcompat.app.AppCompatActivity <|-- lev.ariel.arielbookstore.HomeActivity
android.app.Service <|-- lev.ariel.arielbookstore.MyService
androidx.appcompat.app.AppCompatActivity <|-- lev.ariel.arielbookstore.GoodbyeActivity
lev.ariel.arielbookstore.Adapter <|-- lev.ariel.arielbookstore.BookAdapter
lev.ariel.arielbookstore.BookAdapter +.. lev.ariel.arielbookstore.BookAdapter$MyViewHolder
lev.ariel.arielbookstore.ViewHolder <|-- lev.ariel.arielbookstore.BookAdapter$MyViewHolder
androidx.fragment.app.Fragment <|-- lev.ariel.arielbookstore.RegisterFragment
android.content.BroadcastReceiver <|-- lev.ariel.arielbookstore.ScheduleBroadCastReciver
androidx.appcompat.app.AppCompatActivity <|-- lev.ariel.arielbookstore.BuyOrSellActivity
androidx.appcompat.app.AppCompatActivity <|-- lev.ariel.arielbookstore.MainActivity
lev.ariel.arielbookstore.OnClickListener <|.. lev.ariel.arielbookstore.BookListActivity
androidx.appcompat.app.AppCompatActivity <|-- lev.ariel.arielbookstore.BookListActivity
androidx.appcompat.app.AppCompatActivity <|-- lev.ariel.arielbookstore.SellPageActivity
androidx.fragment.app.Fragment <|-- lev.ariel.arielbookstore.LoginFragment
androidx.appcompat.app.AppCompatActivity <|-- lev.ariel.arielbookstore.BookPageActivity
@enduml